<svg width="56" height="27" viewBox="0 0 56 27" fill="none" xmlns="http://www.w3.org/2000/svg">
<path d="M8.728 0.799998C10.264 0.799998 11.596 1.004 12.724 1.412C13.852 1.796 14.776 2.336 15.496 3.032C16.216 3.728 16.744 4.532 17.08 5.444C17.416 6.356 17.584 7.328 17.584 8.36C17.584 9.368 17.416 10.328 17.08 11.24C16.744 12.152 16.216 12.956 15.496 13.652C14.776 14.348 13.852 14.9 12.724 15.308C11.596 15.692 10.264 15.884 8.728 15.884H4.264V26H0.7V0.799998H8.728ZM4.264 12.644H8.728C10.576 12.644 11.908 12.272 12.724 11.528C13.564 10.76 13.984 9.704 13.984 8.36C13.984 6.992 13.564 5.924 12.724 5.156C11.908 4.412 10.576 4.04 8.728 4.04H4.264V12.644ZM28.9136 7.64C30.3536 7.64 31.6616 7.88 32.8376 8.36C34.0376 8.864 35.0696 9.56 35.9336 10.448L33.5576 12.824C33.0056 12.176 32.3336 11.66 31.5416 11.276C30.7496 10.916 29.8736 10.736 28.9136 10.736C28.0256 10.736 27.2096 10.892 26.4656 11.204C25.7216 11.516 25.0856 11.96 24.5576 12.536C24.0056 13.088 23.5736 13.748 23.2616 14.516C22.9736 15.26 22.8296 16.088 22.8296 17C22.8296 17.888 22.9856 18.716 23.2976 19.484C23.5856 20.252 23.9936 20.912 24.5216 21.464C25.0736 22.016 25.7216 22.46 26.4656 22.796C27.2096 23.108 28.0256 23.264 28.9136 23.264C29.8736 23.264 30.7496 23.072 31.5416 22.688C32.3576 22.328 33.0296 21.812 33.5576 21.14L35.9336 23.516C35.0696 24.404 34.0376 25.1 32.8376 25.604C31.6616 26.108 30.3536 26.36 28.9136 26.36C27.5456 26.36 26.2736 26.12 25.0976 25.64C23.9216 25.184 22.9136 24.536 22.0736 23.696C21.2336 22.88 20.5736 21.896 20.0936 20.744C19.6136 19.592 19.3736 18.344 19.3736 17C19.3736 15.632 19.6136 14.384 20.0936 13.256C20.5736 12.104 21.2336 11.108 22.0736 10.268C22.9136 9.452 23.9216 8.804 25.0976 8.324C26.2496 7.868 27.5216 7.64 28.9136 7.64ZM42.5708 8V16.712L50.6348 8H54.8108L48.0428 15.272L55.6028 26H51.4628L45.7028 17.828L42.5708 21.176V26H39.2228V8H42.5708Z" fill="black"/>
</svg>
