<svg width="118" height="34" viewBox="0 0 118 34" fill="none" xmlns="http://www.w3.org/2000/svg">
<path d="M14.812 0.799998V4.04H4.3V26H0.7V0.799998H14.812ZM21.5901 7.64C22.8861 7.64 24.0861 7.88 25.1901 8.36C26.3181 8.816 27.2781 9.464 28.0701 10.304C28.8861 11.12 29.5101 12.104 29.9421 13.256C30.3981 14.384 30.6261 15.632 30.6261 17V18.296H19.3581V15.416H27.0981C26.8101 14 26.1861 12.86 25.2261 11.996C24.2421 11.132 23.0301 10.7 21.5901 10.7C20.7261 10.7 19.9461 10.856 19.2501 11.168C18.5781 11.48 18.0021 11.912 17.5221 12.464C17.0181 13.016 16.6341 13.664 16.3701 14.408C16.1061 15.152 15.9741 15.968 15.9741 16.856C15.9741 17.792 16.1301 18.644 16.4421 19.412C16.7301 20.204 17.1501 20.888 17.7021 21.464C18.2541 22.016 18.9021 22.46 19.6461 22.796C20.3901 23.108 21.2061 23.264 22.0941 23.264C22.8381 23.264 23.4981 23.168 24.0741 22.976C24.6501 22.76 25.1421 22.52 25.5501 22.256C25.9821 21.992 26.3301 21.716 26.5941 21.428C26.8821 21.14 27.0981 20.912 27.2421 20.744L29.7621 22.58C29.1621 23.324 28.5621 23.936 27.9621 24.416C27.3621 24.896 26.7501 25.28 26.1261 25.568C25.5021 25.856 24.8541 26.06 24.1821 26.18C23.4861 26.3 22.7421 26.36 21.9501 26.36C20.6061 26.36 19.3581 26.132 18.2061 25.676C17.0541 25.196 16.0581 24.536 15.2181 23.696C14.3781 22.856 13.7181 21.86 13.2381 20.708C12.7581 19.556 12.5181 18.296 12.5181 16.928C12.5181 15.584 12.7461 14.348 13.2021 13.22C13.6581 12.092 14.2821 11.108 15.0741 10.268C15.8901 9.452 16.8501 8.804 17.9541 8.324C19.0581 7.868 20.2701 7.64 21.5901 7.64ZM44.0896 7.64C45.2896 7.64 46.3936 7.88 47.4016 8.36C48.4336 8.816 49.3096 9.464 50.0296 10.304C50.7736 11.12 51.3496 12.104 51.7576 13.256C52.1896 14.408 52.4056 15.656 52.4056 17C52.4056 18.344 52.1896 19.592 51.7576 20.744C51.3496 21.896 50.7736 22.892 50.0296 23.732C49.3096 24.548 48.4336 25.196 47.4016 25.676C46.3936 26.132 45.2896 26.36 44.0896 26.36C42.8176 26.36 41.6416 26.096 40.5616 25.568C39.4816 25.04 38.5576 24.296 37.7896 23.336V33.2H34.4416V8H37.7896V10.664C38.5576 9.704 39.4816 8.96 40.5616 8.432C41.6416 7.904 42.8176 7.64 44.0896 7.64ZM39.4096 21.464C39.9136 22.04 40.5016 22.484 41.1736 22.796C41.8456 23.108 42.5776 23.264 43.3696 23.264C44.1856 23.264 44.9296 23.108 45.6016 22.796C46.2976 22.484 46.8856 22.04 47.3656 21.464C47.8696 20.912 48.2536 20.252 48.5176 19.484C48.8056 18.74 48.9496 17.912 48.9496 17C48.9496 16.088 48.8056 15.26 48.5176 14.516C48.2536 13.748 47.8696 13.088 47.3656 12.536C46.8856 11.96 46.2976 11.516 45.6016 11.204C44.9296 10.892 44.1856 10.736 43.3696 10.736C42.5776 10.736 41.8456 10.892 41.1736 11.204C40.5016 11.516 39.9136 11.96 39.4096 12.536C38.9296 13.088 38.5456 13.748 38.2576 14.516C37.9696 15.26 37.8256 16.088 37.8256 17C37.8256 17.912 37.9696 18.74 38.2576 19.484C38.5456 20.252 38.9296 20.912 39.4096 21.464ZM59.4441 8L66.0321 21.212L72.6201 8H75.8961V26H72.5481V14.588L66.8601 26H65.2041L59.5161 14.588V26H56.1681V8H59.4441ZM88.7386 7.64C90.0346 7.64 91.2346 7.88 92.3386 8.36C93.4666 8.816 94.4266 9.464 95.2186 10.304C96.0346 11.12 96.6586 12.104 97.0906 13.256C97.5466 14.384 97.7746 15.632 97.7746 17V18.296H86.5066V15.416H94.2466C93.9586 14 93.3346 12.86 92.3746 11.996C91.3906 11.132 90.1786 10.7 88.7386 10.7C87.8746 10.7 87.0946 10.856 86.3986 11.168C85.7266 11.48 85.1506 11.912 84.6706 12.464C84.1666 13.016 83.7826 13.664 83.5186 14.408C83.2546 15.152 83.1226 15.968 83.1226 16.856C83.1226 17.792 83.2786 18.644 83.5906 19.412C83.8786 20.204 84.2986 20.888 84.8506 21.464C85.4026 22.016 86.0506 22.46 86.7946 22.796C87.5386 23.108 88.3546 23.264 89.2426 23.264C89.9866 23.264 90.6466 23.168 91.2226 22.976C91.7986 22.76 92.2906 22.52 92.6986 22.256C93.1306 21.992 93.4786 21.716 93.7426 21.428C94.0306 21.14 94.2466 20.912 94.3906 20.744L96.9106 22.58C96.3106 23.324 95.7106 23.936 95.1106 24.416C94.5106 24.896 93.8986 25.28 93.2746 25.568C92.6506 25.856 92.0026 26.06 91.3306 26.18C90.6346 26.3 89.8906 26.36 89.0986 26.36C87.7546 26.36 86.5066 26.132 85.3546 25.676C84.2026 25.196 83.2066 24.536 82.3666 23.696C81.5266 22.856 80.8666 21.86 80.3866 20.708C79.9066 19.556 79.6666 18.296 79.6666 16.928C79.6666 15.584 79.8946 14.348 80.3506 13.22C80.8066 12.092 81.4306 11.108 82.2226 10.268C83.0386 9.452 83.9986 8.804 85.1026 8.324C86.2066 7.868 87.4186 7.64 88.7386 7.64ZM110.23 7.64C111.67 7.64 112.978 7.88 114.154 8.36C115.354 8.864 116.386 9.56 117.25 10.448L114.874 12.824C114.322 12.176 113.65 11.66 112.858 11.276C112.066 10.916 111.19 10.736 110.23 10.736C109.342 10.736 108.526 10.892 107.782 11.204C107.038 11.516 106.402 11.96 105.874 12.536C105.322 13.088 104.89 13.748 104.578 14.516C104.29 15.26 104.146 16.088 104.146 17C104.146 17.888 104.302 18.716 104.614 19.484C104.902 20.252 105.31 20.912 105.838 21.464C106.39 22.016 107.038 22.46 107.782 22.796C108.526 23.108 109.342 23.264 110.23 23.264C111.19 23.264 112.066 23.072 112.858 22.688C113.674 22.328 114.346 21.812 114.874 21.14L117.25 23.516C116.386 24.404 115.354 25.1 114.154 25.604C112.978 26.108 111.67 26.36 110.23 26.36C108.862 26.36 107.59 26.12 106.414 25.64C105.238 25.184 104.23 24.536 103.39 23.696C102.55 22.88 101.89 21.896 101.41 20.744C100.93 19.592 100.69 18.344 100.69 17C100.69 15.632 100.93 14.384 101.41 13.256C101.89 12.104 102.55 11.108 103.39 10.268C104.23 9.452 105.238 8.804 106.414 8.324C107.566 7.868 108.838 7.64 110.23 7.64Z" fill="black"/>
</svg>
